<?xml version="1.0" encoding="utf-8"?>
<!-- Generator: Adobe Illustrator 24.0.1, SVG Export Plug-In . SVG Version: 6.00 Build 0)  -->
<svg version="1.1" id="Layer_1" xmlns="http://www.w3.org/2000/svg" xmlns:xlink="http://www.w3.org/1999/xlink" x="0px" y="0px"
	 viewBox="0 0 72 72" style="enable-background:new 0 0 72 72;" xml:space="preserve">
<style type="text/css">
	.st0{fill:#FFFFFF;}
</style>
<path class="st0" d="M47.5,13.3L35.9,1.8v8.3c-14.3,0-25.8,11.5-25.9,25.8c0,4.1,1,8.2,2.9,11.9l3.5-3.5
	c-4.6-10.8,0.4-23.3,11.1-27.9c2.7-1.1,5.5-1.7,8.4-1.7v10.1L47.5,13.3z"/>
<path class="st0" d="M61.9,36c0-4.1-1-8.1-2.8-11.8l-3.5,3.5c4.6,10.8-0.5,23.3-11.3,27.8c-2.6,1.1-5.4,1.7-8.3,1.7V47.1L24.5,58.7
	l11.5,11.5v-8.3C50.3,61.9,61.9,50.3,61.9,36z"/>
</svg>
