<?xml version="1.0" encoding="utf-8"?>
<!-- Generator: Adobe Illustrator 24.0.0, SVG Export Plug-In . SVG Version: 6.00 Build 0)  -->
<svg version="1.1" id="Layer_1" xmlns="http://www.w3.org/2000/svg" xmlns:xlink="http://www.w3.org/1999/xlink" x="0px" y="0px"
	 viewBox="0 0 125.4 94.1" style="enable-background:new 0 0 125.4 94.1;" xml:space="preserve">
<style type="text/css">
	.st0{fill:#FFFFFF;}
	.st1{clip-path:url(#SVGID_2_);fill:#A6A5A5;}
	.st2{fill:#A6A5A5;}
</style>
<rect y="0" class="st0" width="125.4" height="94.1"/>
<path d="M120.4,5v84.1H4.9V5H120.4 M125.4,0H-0.1v94.1h125.5V0L125.4,0z"/>
<g>
	<defs>
		<rect id="SVGID_1_" x="-0.1" width="125.5" height="94.1"/>
	</defs>
	<clipPath id="SVGID_2_">
		<use xlink:href="#SVGID_1_"  style="overflow:visible;"/>
	</clipPath>
	<circle class="st1" cx="104.8" cy="25.5" r="11.1"/>
	<path class="st1" d="M29.8,24.3l27.3,24.6l2.9,2.6l3.3,3l3.3-3l16.7-15.1L103,54.1l20.3,18.3v16.7H-6.2V72.8v-5h-5h-7.2l21-18.9
		L29.8,24.3 M29.8,17.6L-0.8,45.2l-30.6,27.6h20.2v21.3h139.5v-23h1l-23-20.7l-23-20.7L63.3,47.8l-2.9-2.6L29.8,17.6L29.8,17.6z"/>
</g>
<path class="st2" d="M120.4,5v84.1H4.9V5H120.4 M125.4,0H-0.1v94.1h125.5V0L125.4,0z"/>
</svg>
