<?xml version="1.0" encoding="utf-8"?>
<!-- Generator: Adobe Illustrator 24.0.1, SVG Export Plug-In . SVG Version: 6.00 Build 0)  -->
<svg version="1.1" id="Layer_1" xmlns="http://www.w3.org/2000/svg" xmlns:xlink="http://www.w3.org/1999/xlink" x="0px" y="0px"
	 viewBox="0 0 232 129" style="enable-background:new 0 0 232 129;" xml:space="preserve">
<style type="text/css">
	.st0{fill:#00537E;}
	.st1{fill:#B11F26;}
</style>
<g id="Group_106" transform="translate(-377.712 -402.796)">
	<g id="Group_75" transform="translate(377.712 424.21)">
		<path id="Path_81" class="st0" d="M25.2,20.5c1.4-1.3,2.1-3.2,1.9-5.1c0-3.6-2.4-7.8-9.1-7.8H4.5v27.9h12c5.3,0,7.1-0.9,8.9-2.7
			c1.6-1.6,2.6-3.8,2.6-6.1C28.2,24.3,27.1,22,25.2,20.5z M17.4,28.6h-5.2v-4.2h5.5c1,0,2.5,0.2,2.5,1.8
			C20.2,27.6,19.7,28.6,17.4,28.6L17.4,28.6z M12.1,17.6v-3h4.8c2.6,0,2.6,0.8,2.6,1.5c0,0.4,0,1.6-2.5,1.6L12.1,17.6L12.1,17.6z"/>
		<rect id="Rectangle_38" x="29.6" y="7.6" class="st0" width="7.8" height="27.9"/>
		<path id="Path_82" class="st0" d="M51.8,26h5.5c-0.7,1.9-2.5,3.2-4.6,3.2c-4.1,0-6.2-2.6-6.2-7.6s2.3-8,6.2-8c2,0,3.7,1.2,4.4,3
			c0.1,0.4,0.2,0.8,0.2,1.2h7.5c0-0.7-0.1-1.3-0.1-1.3C64.4,12,60.4,7,52.4,7h-0.1c-3.5-0.1-6.9,1.2-9.5,3.6c-2.8,3-4.3,7-4.1,11.1
			c0,10,6.5,14.5,12.9,14.5c2.6,0.1,5.2-0.8,7.2-2.5l0.3,1.9h5.7V19.4h-13V26z"/>
	</g>
	<g id="Group_76" transform="translate(402.753 455.393)">
		<path id="Path_83" class="st0" d="M24.2,17.5H12.6v-3.3h13.2V6.9H4.5v28.9h8.1V24.8h11.6V17.5z"/>
		<path id="Path_84" class="st0" d="M31.7,7L21.4,35.9h8.6l1.8-5.4h7.8l1.7,5.4h8.8L39.9,7H31.7z M37.2,23.3h-3.1l1.6-4.9L37.2,23.3
			z"/>
		<path id="Path_85" class="st0" d="M44.8,7v7.3h8v21.7h8.1V14.2h7.9V6.9L44.8,7z"/>
	</g>
	<circle id="Ellipse_10" class="st1" cx="411.1" cy="423.2" r="4.3"/>
	<circle id="Ellipse_11" class="st1" cx="505.8" cy="485.2" r="4.3"/>
	<g id="Group_104" transform="translate(411.071 402.796)">
		<circle id="Ellipse_12" class="st0" cx="48.3" cy="55.5" r="1.4"/>
		<g id="Group_90">
			<g id="Group_77" transform="translate(41.198 40.9)">
				<path id="Path_86" class="st0" d="M5.7,7c0.7-0.1,1.4,0.4,1.4,1.2c0,0,0,0,0,0c0,0.7-0.5,1.4-1.2,1.4C5.2,9.6,4.6,9.1,4.5,8.4
					c0,0,0,0,0,0C4.4,7.7,5,7,5.7,7z"/>
			</g>
			<g id="Group_78" transform="translate(40.546 35.195)">
				<path id="Path_87" class="st0" d="M5.6,7C6.3,6.9,7,7.3,7.1,8.1c0,0,0,0,0,0C7.2,8.8,6.7,9.4,6,9.5c0,0,0,0-0.1,0
					C5.3,9.6,4.6,9.1,4.5,8.4C4.4,7.7,4.9,7.1,5.6,7z"/>
			</g>
			<g id="Group_79" transform="translate(39.532 29.54)">
				<path id="Path_88" class="st0" d="M5.5,7c0.7-0.2,1.4,0.3,1.6,1s-0.3,1.4-1,1.6l0,0c-0.7,0.2-1.4-0.3-1.6-1S4.8,7.1,5.5,7z"/>
			</g>
			<g id="Group_80" transform="translate(38.127 23.978)">
				<path id="Path_89" class="st0" d="M5.4,7C6.1,6.8,6.8,7.1,7,7.8c0,0,0,0,0,0.1c0.2,0.7-0.2,1.4-0.9,1.6C5.5,9.7,4.8,9.3,4.5,8.6
					C4.4,8,4.7,7.2,5.4,7z"/>
			</g>
			<g id="Group_81" transform="translate(36.164 18.573)">
				<path id="Path_90" class="st0" d="M5.3,7.1C6,6.8,6.7,7,7,7.7c0.3,0.7,0,1.4-0.6,1.7c0,0-0.1,0-0.1,0c-0.7,0.3-1.4,0-1.7-0.6
					C4.3,8.2,4.6,7.4,5.3,7.1C5.2,7.1,5.3,7.1,5.3,7.1z"/>
			</g>
			<g id="Group_82" transform="translate(33.621 13.433)">
				<path id="Path_91" class="st0" d="M5.1,7.2C5.8,6.8,6.6,7,6.9,7.6c0,0,0,0,0,0C7.3,8.2,7.1,9,6.5,9.4c0,0,0,0-0.1,0
					C5.8,9.7,5.1,9.5,4.7,8.9C4.3,8.3,4.5,7.5,5.1,7.2z"/>
			</g>
			<g id="Group_83" transform="translate(30.367 8.713)">
				<path id="Path_92" class="st0" d="M5,7.3c0.5-0.5,1.4-0.4,1.8,0.1c0,0,0,0,0,0C7.3,8,7.2,8.8,6.7,9.2c0,0,0,0-0.1,0.1
					C6.1,9.7,5.3,9.6,4.8,9.1C4.3,8.6,4.4,7.7,5,7.3z"/>
			</g>
			<g id="Group_84" transform="translate(26.322 4.663)">
				<path id="Path_93" class="st0" d="M4.8,7.5C5.2,6.9,6,6.8,6.5,7.2c0,0,0,0,0.1,0.1C7.2,7.7,7.3,8.4,6.9,9c0,0-0.1,0.1-0.1,0.1
					C6.3,9.6,5.5,9.7,5,9.3C4.4,8.8,4.3,8,4.8,7.5z"/>
			</g>
			<g id="Group_85" transform="translate(21.462 1.625)">
				<path id="Path_94" class="st0" d="M4.6,7.8c0.3-0.7,1-1,1.7-0.7c0,0,0.1,0,0.1,0C7,7.4,7.3,8.2,7,8.8c0,0,0,0,0,0.1
					C6.6,9.5,5.9,9.8,5.3,9.5C4.6,9.2,4.3,8.4,4.6,7.8z"/>
			</g>
			<g id="Group_86" transform="translate(15.977)">
				<path id="Path_95" class="st0" d="M4.5,8.1C4.6,7.4,5.3,6.9,6,7c0.7,0.1,1.2,0.8,1.1,1.5l0,0C7,9.2,6.3,9.7,5.6,9.6
					C4.9,9.5,4.4,8.8,4.5,8.1z"/>
			</g>
			<g id="Group_87" transform="translate(10.238 0.005)">
				<path id="Path_96" class="st0" d="M4.5,8.5C4.4,7.8,4.9,7.1,5.6,7C6.3,6.9,7,7.4,7.1,8.1l0,0C7.2,8.8,6.7,9.5,6,9.6
					C5.3,9.7,4.6,9.2,4.5,8.5z"/>
			</g>
			<g id="Group_88" transform="translate(4.763 1.669)">
				<path id="Path_97" class="st0" d="M4.7,8.9C4.3,8.2,4.6,7.4,5.2,7.1C5.8,6.8,6.6,7,7,7.7c0,0,0,0.1,0.1,0.1
					c0.3,0.6,0,1.4-0.6,1.7C5.7,9.8,5,9.5,4.7,8.9z"/>
			</g>
			<g id="Group_89" transform="translate(0 4.839)">
				<path id="Path_98" class="st0" d="M4.9,9.2C4.4,8.6,4.4,7.8,5,7.3s1.4-0.4,1.8,0.1s0.4,1.4-0.1,1.8S5.3,9.7,4.9,9.2L4.9,9.2z"/>
			</g>
		</g>
		<g id="Group_103" transform="translate(47.141 32.603)">
			<g id="Group_91" transform="translate(41.389 32.281)">
				<path id="Path_99" class="st0" d="M5.7,7c0.7-0.1,1.4,0.5,1.4,1.2c0.1,0.7-0.5,1.4-1.2,1.4c-0.7,0-1.4-0.5-1.4-1.3
					C4.5,7.7,5,7.1,5.7,7z"/>
			</g>
			<g id="Group_92" transform="translate(40.629 26.39)">
				<path id="Path_100" class="st0" d="M5.6,7C6.3,6.9,7,7.3,7.1,8.1c0,0,0,0,0,0c0.1,0.7-0.3,1.4-1,1.5c0,0,0,0-0.1,0
					C5.3,9.7,4.6,9.2,4.5,8.5C4.4,7.8,4.9,7.1,5.6,7z"/>
			</g>
			<g id="Group_93" transform="translate(39.443 20.577)">
				<path id="Path_101" class="st0" d="M5.5,7c0.7-0.2,1.4,0.2,1.6,0.9c0,0,0,0.1,0,0.1c0.2,0.7-0.2,1.5-1,1.6c0,0,0,0,0,0
					c-0.7,0.2-1.4-0.3-1.6-1C4.4,7.9,4.8,7.2,5.5,7z"/>
			</g>
			<g id="Group_94" transform="translate(37.61 14.925)">
				<path id="Path_102" class="st0" d="M5.3,7.1C6,6.8,6.8,7.2,7,7.9C7.3,8.5,7,9.3,6.3,9.6C5.6,9.8,4.8,9.5,4.6,8.8
					C4.3,8.1,4.7,7.3,5.3,7.1z"/>
			</g>
			<g id="Group_95" transform="translate(34.996 9.606)">
				<path id="Path_103" class="st0" d="M5.1,7.2C5.7,6.8,6.6,7,7,7.6c0.4,0.6,0.2,1.4-0.4,1.8C5.9,9.8,5.1,9.6,4.7,9
					C4.3,8.4,4.5,7.6,5.1,7.2z"/>
			</g>
			<g id="Group_96" transform="translate(31.353 4.951)">
				<path id="Path_104" class="st0" d="M4.8,7.4c0.5-0.5,1.3-0.6,1.8-0.1c0,0,0.1,0.1,0.1,0.1c0.5,0.5,0.6,1.3,0.1,1.9
					c0,0,0,0-0.1,0.1c-0.5,0.5-1.3,0.5-1.9,0C4.4,8.7,4.4,7.9,4.8,7.4z"/>
			</g>
			<g id="Group_97" transform="translate(26.531 1.559)">
				<path id="Path_105" class="st0" d="M4.6,7.7c0.3-0.7,1.1-0.9,1.8-0.6S7.3,8.2,7,8.9C6.6,9.6,5.8,9.8,5.2,9.4
					C4.6,9.1,4.3,8.4,4.6,7.7z"/>
			</g>
			<g id="Group_98" transform="translate(20.814)">
				<path id="Path_106" class="st0" d="M4.5,8.2c0-0.7,0.6-1.3,1.4-1.2c0,0,0.1,0,0.1,0c0.7,0,1.3,0.6,1.2,1.3c0,0.1,0,0.1,0,0.2
					C7,9.1,6.4,9.6,5.7,9.6C5,9.5,4.5,8.9,4.5,8.2z"/>
			</g>
			<g id="Group_99" transform="translate(14.904 0.376)">
				<path id="Path_107" class="st0" d="M4.5,8.6C4.4,7.9,4.9,7.2,5.6,7C6.3,6.8,7,7.3,7.2,8c0.1,0.7-0.4,1.4-1,1.5
					C5.4,9.7,4.7,9.3,4.5,8.6z"/>
			</g>
			<g id="Group_100" transform="translate(9.331 2.359)">
				<path id="Path_108" class="st0" d="M4.7,8.9C4.3,8.3,4.5,7.4,5.2,7.1C5.8,6.7,6.6,6.9,7,7.6C7.4,8.2,7.2,9,6.5,9.4
					c0,0,0,0-0.1,0C5.8,9.8,5,9.5,4.7,8.9z"/>
			</g>
			<g id="Group_101" transform="translate(4.315 5.504)">
				<path id="Path_109" class="st0" d="M4.8,9.1C4.4,8.5,4.5,7.7,5.1,7.2c0.6-0.4,1.4-0.3,1.9,0.2c0.4,0.6,0.3,1.4-0.3,1.9
					C6.1,9.8,5.3,9.7,4.8,9.1z"/>
			</g>
			<g id="Group_102" transform="translate(0 9.544)">
				<path id="Path_110" class="st0" d="M5,9.3C4.4,8.8,4.4,8,4.9,7.4s1.3-0.6,1.9-0.1l0,0c0.5,0.5,0.6,1.4,0,1.9
					C6.3,9.7,5.5,9.8,5,9.3z"/>
			</g>
		</g>
	</g>
	<path id="Path_111" class="st0" d="M423.5,494.6h13.6c2.2-0.1,4.4,0.3,6.5,1.1c1.6,0.7,3,1.8,4.1,3.1c1.1,1.4,1.9,3,2.3,4.7
		c0.5,1.9,0.7,3.8,0.7,5.7c0.1,2.5-0.3,5-1.1,7.4c-0.7,1.7-1.7,3.2-3,4.4c-1.2,1.1-2.6,1.9-4.1,2.4c-1.8,0.5-3.6,0.8-5.5,0.8h-13.6
		V494.6z M432.6,501.4v16.2h2.2c1.4,0.1,2.8-0.1,4.1-0.6c0.9-0.5,1.5-1.3,1.9-2.2c0.5-1.7,0.8-3.4,0.7-5.1c0-3.1-0.5-5.3-1.5-6.4
		c-1-1.2-2.7-1.7-5.1-1.7L432.6,501.4z"/>
	<path id="Path_112" class="st0" d="M453.4,494.6h9.2v29.6h-9.2V494.6z"/>
	<path id="Path_113" class="st0" d="M464.9,514.5l8.7-0.5c0.1,1.2,0.5,2.3,1.2,3.2c1,1.2,2.5,1.9,4,1.8c1.1,0.1,2.2-0.3,3-0.9
		c0.7-0.5,1-1.3,1.1-2.1c0-0.8-0.4-1.6-1-2.1c-0.7-0.6-2.2-1.2-4.7-1.7c-4-0.9-6.9-2.1-8.6-3.6c-1.7-1.4-2.6-3.5-2.6-5.7
		c0-1.5,0.5-3,1.3-4.3c1-1.4,2.4-2.5,4-3.2c2.3-0.9,4.8-1.3,7.3-1.2c3.8,0,6.7,0.7,8.7,2.1s3.2,3.6,3.5,6.7l-8.6,0.5
		c-0.1-2.2-2-3.9-4.2-3.8c-0.1,0-0.2,0-0.3,0c-0.9-0.1-1.7,0.2-2.4,0.7c-0.5,0.4-0.8,1-0.8,1.6c0,0.5,0.3,1,0.7,1.3
		c0.9,0.6,2,1,3.1,1.1c3,0.5,5.8,1.4,8.6,2.6c1.5,0.7,2.9,1.9,3.8,3.3c0.8,1.3,1.2,2.8,1.2,4.4c0,1.9-0.5,3.7-1.6,5.3
		c-1.1,1.6-2.6,2.9-4.4,3.6c-2.3,0.9-4.7,1.3-7.1,1.2c-5,0-8.5-1-10.5-2.9C466.3,519.9,465.1,517.3,464.9,514.5z"/>
	<path id="Path_114" class="st1" d="M493.8,494.6h15.2c3.3,0,5.8,0.8,7.4,2.4c1.7,1.8,2.6,4.2,2.5,6.7c0.1,2.6-0.8,5.2-2.7,7
		c-1.8,1.7-4.5,2.5-8.2,2.5h-5v11h-9.2L493.8,494.6z M503,507.3h2.2c1.3,0.1,2.6-0.2,3.7-0.9c0.7-0.6,1.1-1.4,1.1-2.4
		c0-0.9-0.3-1.7-0.9-2.4c-0.6-0.6-1.8-1-3.5-1H503L503,507.3z"/>
	<path id="Path_115" class="st1" d="M521.2,494.6h9.2V517h14.3v7.3h-23.4V494.6z"/>
	<path id="Path_116" class="st1" d="M568.1,519.4h-10.4l-1.4,4.9h-9.3l11.1-29.6h10l11.1,29.6h-9.6L568.1,519.4z M566.2,513
		l-3.3-10.7l-3.2,10.7L566.2,513z"/>
	<path id="Path_117" class="st1" d="M573,494.6h10.2l6,10l6-10h10.1l-11.5,17.2v12.4h-9.2v-12.4L573,494.6z"/>
</g>
</svg>
