<?xml version="1.0" encoding="utf-8"?>
<!-- Generator: Adobe Illustrator 24.0.1, SVG Export Plug-In . SVG Version: 6.00 Build 0)  -->
<svg version="1.1" id="Layer_1" xmlns="http://www.w3.org/2000/svg" xmlns:xlink="http://www.w3.org/1999/xlink" x="0px" y="0px"
	 viewBox="0 0 262.3 154.5" style="enable-background:new 0 0 262.3 154.5;" xml:space="preserve">
<style type="text/css">
	.st0{fill:#131F34;}
	.st1{fill:#B11F26;}
</style>
<g id="Group_142" transform="translate(-377.712 -229.112)">
	<g id="Group_111" transform="translate(427.062 327.249)">
		<path id="Path_118" class="st0" d="M22.6,10.7H7v35.1h15.4c10.9,0,14.8-9.4,14.8-18.3C37.2,23.5,36.1,10.7,22.6,10.7z M16.5,19.2
			h5c1.9,0,5.9,0,5.9,8.7c0,2.8-0.6,9.3-5.8,9.3h-5L16.5,19.2L16.5,19.2z"/>
		<path id="Path_119" class="st0" d="M48.8,31.8h15.6v-8.6H48.8v-3.8h17v-8.7H39.2v35.1h27.3v-8.6H48.8V31.8z"/>
		<path id="Path_120" class="st0" d="M87.2,24.5l-7.8-1.9c-1.8-0.4-2.2-0.8-2.2-1.9c0-2.2,3.4-2.4,4.1-2.4c4.7,0,4.9,2.3,5.1,3.5
			l0.1,1.3h9.4l0-1.5c0-4.4-3.1-11.8-14-11.8c-10.2,0-13.8,5.9-13.8,11.4c0,8.2,6,9.6,11.3,10.9l3.4,0.8c3.8,0.9,4.7,1.4,4.7,2.5
			c0,0.7,0,2.7-5.2,2.7c-3.5,0-5.2-1.3-5.3-3.7l0-1.5h-9.4v1.5c0,2.9,1.1,12.2,15.2,12.2c6.5,0,14.1-3.1,14.1-12
			C96.7,26.9,90.1,25.2,87.2,24.5z"/>
		<path id="Path_121" class="st0" d="M196.5,24.5l-7.8-1.9c-1.8-0.4-2.2-0.8-2.2-1.9c0-2.2,3.4-2.4,4.1-2.4c4.7,0,4.9,2.3,5.1,3.5
			l0.1,1.3h9.4l0-1.5c0-4.4-3.1-11.8-14-11.8c-10.2,0-13.8,5.9-13.8,11.4c0,8.2,6,9.6,11.3,10.9l3.4,0.8c3.8,0.9,4.7,1.4,4.7,2.5
			c0,0.7,0,2.7-5.2,2.7c-3.5,0-5.2-1.3-5.3-3.7l0-1.5h-9.4v1.5c0,2.9,1.1,12.2,15.2,12.2c6.5,0,14.1-3.1,14.1-12
			C206,26.9,199.3,25.2,196.5,24.5z"/>
		<rect id="Rectangle_42" x="98.3" y="10.7" class="st0" width="9.7" height="35.1"/>
		<path id="Path_122" class="st0" d="M126.3,33.8h6.9c-0.9,2.4-3.2,4.1-5.8,4.1c-5.2,0-7.9-3.2-7.9-9.5s2.9-10,7.7-10
			c3-0.1,5.6,2.2,5.8,5.3h9.4c0-0.5,0-1.1-0.1-1.6c-0.5-5.9-5.5-12.2-15.6-12.2H127c-4.4-0.1-8.7,1.5-11.9,4.5
			c-3.4,3.3-5.2,8.3-5.2,13.9c0,12.6,8.2,18.3,16.2,18.3c3.3,0.1,6.5-1,9-3.2l0.4,2.3h7.2V25.5h-16.4V33.8z"/>
		<path id="Path_123" class="st0" d="M165.6,29l-10.5-18.4h-9.4v35.1h9.2V26.8l10.8,18.9h9.1V10.7h-9.2L165.6,29z"/>
	</g>
	<g id="Group_112" transform="translate(377.712 254.332)">
		<path id="Path_124" class="st0" d="M31.4,25.7c1.6-1.6,2.4-3.8,2.3-6c0-4.2-2.8-9.1-10.7-9.1H7v32.8h14.2c6.2,0,8.3-1,10.5-3.1
			c1.9-1.9,3-4.5,3-7.2C34.6,29.8,33.5,27.4,31.4,25.7z M22.1,35.3h-6.2v-5h6.5c1.1,0,3,0.3,3,2.1C25.4,34.2,24.9,35.3,22.1,35.3
			L22.1,35.3z M15.9,22.3v-3.6h5.7c3.1,0,3.1,0.9,3.1,1.7c0,0.5,0,1.8-2.9,1.8L15.9,22.3L15.9,22.3z"/>
		<rect id="Rectangle_43" x="36.5" y="10.6" class="st0" width="9.2" height="32.9"/>
		<path id="Path_125" class="st0" d="M62.7,32.3h6.5c-0.8,2.3-3,3.8-5.4,3.8c-4.9,0-7.4-3-7.4-8.9s2.7-9.4,7.2-9.4
			c2.3,0,4.4,1.4,5.2,3.5c0.2,0.5,0.3,0.9,0.3,1.4H78c0-0.5,0-1-0.1-1.5c-0.4-5.5-5.2-11.4-14.6-11.4h-0.1
			c-4.1-0.1-8.2,1.4-11.2,4.3c-3.1,3.1-4.9,7.8-4.9,13c0,11.8,7.6,17.1,15.2,17.1c3.1,0.1,6.1-0.9,8.5-3l0.4,2.2h6.8v-19H62.7V32.3z
			"/>
	</g>
	<g id="Group_113" transform="translate(407.207 291.064)">
		<path id="Path_126" class="st1" d="M30.2,22.3H16.5v-3.9h15.6V9.8H7v34.1h9.6v-13h13.6V22.3z"/>
		<path id="Path_127" class="st1" d="M39,9.8L26.8,43.9h10.1l2.2-6.4h9.2l2,6.4h10.4l-12-34.1L39,9.8z M45.5,29h-3.7l1.9-5.8
			L45.5,29z"/>
		<path id="Path_128" class="st1" d="M54.5,9.8v8.6h9.4v25.5h9.6V18.4h9.4V9.8L54.5,9.8z"/>
	</g>
	<circle id="Ellipse_13" class="st1" cx="418.7" cy="254.8" r="5.1"/>
	<circle id="Ellipse_14" class="st1" cx="530.2" cy="327.8" r="5.1"/>
	<g id="Group_141" transform="translate(417.004 229.112)">
		<circle id="Ellipse_15" class="st0" cx="58.6" cy="67" r="1.7"/>
		<g id="Group_127">
			<g id="Group_114" transform="translate(48.526 48.174)">
				<path id="Path_129" class="st0" d="M8.4,9.8c0.8-0.1,1.6,0.5,1.7,1.4c0,0,0,0,0,0c0.1,0.9-0.6,1.6-1.4,1.7
					C7.8,12.9,7,12.3,7,11.5c0,0,0,0,0,0C6.9,10.6,7.5,9.9,8.4,9.8z"/>
			</g>
			<g id="Group_115" transform="translate(47.758 41.454)">
				<path id="Path_130" class="st0" d="M8.3,9.8c0.9-0.1,1.6,0.4,1.8,1.3c0,0,0,0,0,0c0.1,0.8-0.4,1.6-1.3,1.7c0,0,0,0-0.1,0
					C7.9,13,7.1,12.4,7,11.6C6.9,10.7,7.4,9.9,8.3,9.8C8.3,9.8,8.3,9.8,8.3,9.8z"/>
			</g>
			<g id="Group_116" transform="translate(46.563 34.792)">
				<path id="Path_131" class="st0" d="M8.2,9.8c0.8-0.2,1.7,0.2,1.9,1.1c0.2,0.8-0.2,1.7-1.1,1.9c-0.1,0-0.1,0-0.2,0
					c-0.8,0.2-1.7-0.2-1.9-1.1C6.7,11,7.2,10.1,8,9.9C8.1,9.9,8.1,9.8,8.2,9.8z"/>
			</g>
			<g id="Group_117" transform="translate(44.908 28.243)">
				<path id="Path_132" class="st0" d="M8,9.9C8.8,9.6,9.7,10,10,10.8c0,0,0,0,0,0.1c0.2,0.8-0.2,1.7-1.1,1.9
					c-0.8,0.2-1.7-0.2-1.9-1c0,0,0,0,0,0C6.8,11,7.2,10.1,8,9.9z"/>
			</g>
			<g id="Group_118" transform="translate(42.596 21.876)">
				<path id="Path_133" class="st0" d="M7.9,9.9c0.8-0.3,1.7,0,2,0.8s0,1.7-0.8,2c0,0,0,0,0,0c-0.8,0.3-1.7,0-2-0.8
					S7.1,10.3,7.9,9.9C7.9,9.9,7.9,9.9,7.9,9.9z"/>
			</g>
			<g id="Group_119" transform="translate(39.601 15.822)">
				<path id="Path_134" class="st0" d="M7.7,10c0.7-0.4,1.7-0.2,2.1,0.5c0,0,0,0,0,0c0.4,0.7,0.2,1.6-0.5,2.1c0,0-0.1,0-0.1,0.1
					c-0.7,0.4-1.6,0.1-2.1-0.6C6.8,11.4,7,10.5,7.7,10z"/>
			</g>
			<g id="Group_120" transform="translate(35.768 10.263)">
				<path id="Path_135" class="st0" d="M7.5,10.2c0.6-0.6,1.6-0.5,2.2,0.1c0,0,0,0,0,0c0.5,0.6,0.5,1.6-0.2,2.1c0,0-0.1,0-0.1,0.1
					c-0.7,0.5-1.6,0.4-2.1-0.2C6.8,11.7,6.9,10.7,7.5,10.2z"/>
			</g>
			<g id="Group_121" transform="translate(31.003 5.492)">
				<path id="Path_136" class="st0" d="M7.3,10.4c0.5-0.7,1.4-0.8,2.1-0.3c0,0,0.1,0,0.1,0.1c0.7,0.5,0.8,1.4,0.3,2.1
					c0,0-0.1,0.1-0.1,0.1c-0.6,0.6-1.5,0.7-2.2,0.2C6.9,12,6.8,11.1,7.3,10.4z"/>
			</g>
			<g id="Group_122" transform="translate(25.279 1.913)">
				<path id="Path_137" class="st0" d="M7.1,10.8C7.4,10,8.2,9.6,9,9.9c0,0,0.1,0,0.1,0c0.8,0.4,1.1,1.3,0.8,2c0,0,0,0,0,0.1
					c-0.4,0.7-1.3,1.1-2,0.7C7.1,12.4,6.8,11.5,7.1,10.8z"/>
			</g>
			<g id="Group_123" transform="translate(18.819)">
				<path id="Path_138" class="st0" d="M7,11.2c0.1-0.8,0.9-1.4,1.7-1.4s1.4,0.9,1.4,1.7c0,0,0,0.1,0,0.1c-0.1,0.8-0.9,1.4-1.7,1.3
					C7.4,12.8,6.8,12,7,11.2z"/>
			</g>
			<g id="Group_124" transform="translate(12.059 0.006)">
				<path id="Path_139" class="st0" d="M7,11.6C6.9,10.8,7.4,10,8.3,9.8c0.8-0.1,1.6,0.4,1.8,1.3c0,0,0,0.1,0,0.1
					c0.1,0.8-0.5,1.6-1.3,1.7C7.9,13,7.1,12.4,7,11.6z"/>
			</g>
			<g id="Group_125" transform="translate(5.61 1.965)">
				<path id="Path_140" class="st0" d="M7.1,12.1c-0.4-0.8-0.1-1.7,0.7-2.1c0.8-0.4,1.7-0.1,2.1,0.7c0,0,0,0.1,0,0.1
					c0.3,0.8,0,1.6-0.7,2C8.4,13.1,7.5,12.8,7.1,12.1z"/>
			</g>
			<g id="Group_126" transform="translate(0 5.699)">
				<path id="Path_141" class="st0" d="M7.4,12.4c-0.6-0.6-0.6-1.6,0-2.2C8,9.6,9,9.6,9.6,10.2c0,0,0.1,0.1,0.1,0.1
					c0.5,0.7,0.4,1.6-0.2,2.2C8.8,13,7.9,13,7.4,12.4z"/>
			</g>
		</g>
		<g id="Group_140" transform="translate(55.525 38.402)">
			<g id="Group_128" transform="translate(48.751 38.021)">
				<path id="Path_142" class="st0" d="M8.3,9.8c0.9-0.1,1.6,0.6,1.7,1.5c0.1,0.9-0.6,1.6-1.4,1.7C7.7,13,7,12.3,7,11.5
					C6.9,10.6,7.5,9.9,8.3,9.8z"/>
			</g>
			<g id="Group_129" transform="translate(47.855 31.084)">
				<path id="Path_143" class="st0" d="M8.2,9.8c0.8-0.1,1.7,0.4,1.8,1.3c0,0,0,0,0,0c0.2,0.8-0.4,1.6-1.2,1.8c0,0,0,0-0.1,0
					c-0.9,0.1-1.6-0.5-1.8-1.3C6.8,10.8,7.4,10,8.2,9.8z"/>
			</g>
			<g id="Group_130" transform="translate(46.459 24.236)">
				<path id="Path_144" class="st0" d="M8.1,9.9c0.8-0.2,1.7,0.2,1.9,1.1c0,0,0,0.1,0,0.1c0.2,0.8-0.3,1.7-1.1,1.9c0,0,0,0,0,0
					C8,13.1,7.2,12.6,7,11.8C6.8,11,7.3,10.1,8.1,9.9z"/>
			</g>
			<g id="Group_131" transform="translate(44.299 17.579)">
				<path id="Path_145" class="st0" d="M7.9,9.9c0.8-0.3,1.7,0.1,2,1c0.3,0.8-0.1,1.7-0.9,2c-0.8,0.3-1.7-0.1-2-1
					C6.8,11.1,7.1,10.3,7.9,9.9z"/>
			</g>
			<g id="Group_132" transform="translate(41.221 11.313)">
				<path id="Path_146" class="st0" d="M7.7,10.1c0.8-0.4,1.7-0.2,2.2,0.6c0.4,0.7,0.2,1.7-0.5,2.1c-0.8,0.4-1.7,0.2-2.2-0.5
					C6.8,11.5,7,10.5,7.7,10.1z"/>
			</g>
			<g id="Group_133" transform="translate(36.929 5.83)">
				<path id="Path_147" class="st0" d="M7.3,10.3c0.5-0.6,1.5-0.7,2.1-0.2c0,0,0.1,0.1,0.1,0.1c0.6,0.6,0.7,1.6,0.1,2.2
					c0,0,0,0-0.1,0.1c-0.6,0.6-1.6,0.6-2.2,0C6.8,11.9,6.8,11,7.3,10.3z"/>
			</g>
			<g id="Group_134" transform="translate(31.25 1.836)">
				<path id="Path_148" class="st0" d="M7.1,10.7C7.4,9.9,8.4,9.6,9.2,10s1.1,1.3,0.7,2.1c-0.4,0.8-1.4,1.1-2.2,0.6
					C7,12.4,6.7,11.5,7.1,10.7z"/>
			</g>
			<g id="Group_135" transform="translate(24.516)">
				<path id="Path_149" class="st0" d="M7,11.2c0-0.8,0.8-1.5,1.6-1.5c0,0,0.1,0,0.1,0c0.8,0,1.5,0.7,1.4,1.6c0,0.1,0,0.1,0,0.2
					c-0.2,0.8-0.9,1.4-1.7,1.3C7.6,12.8,6.9,12.1,7,11.2z"/>
			</g>
			<g id="Group_136" transform="translate(17.555 0.443)">
				<path id="Path_150" class="st0" d="M7,11.7C6.8,10.9,7.4,10,8.2,9.9c0.9-0.2,1.7,0.4,1.9,1.2c0,0,0,0,0,0
					c0.1,0.8-0.4,1.6-1.2,1.8C8.1,13.1,7.2,12.6,7,11.7z"/>
			</g>
			<g id="Group_137" transform="translate(10.991 2.777)">
				<path id="Path_151" class="st0" d="M7.1,12.1C6.7,11.3,7,10.4,7.7,9.9c0.8-0.4,1.7-0.2,2.2,0.6c0.4,0.8,0.2,1.7-0.6,2.2
					c0,0-0.1,0-0.1,0C8.5,13.1,7.6,12.8,7.1,12.1z"/>
			</g>
			<g id="Group_138" transform="translate(5.082 6.482)">
				<path id="Path_152" class="st0" d="M7.3,12.4c-0.5-0.7-0.4-1.7,0.4-2.2c0.7-0.5,1.6-0.4,2.1,0.3c0.5,0.7,0.4,1.7-0.3,2.2
					C8.8,13.1,7.9,13,7.3,12.4z"/>
			</g>
			<g id="Group_139" transform="translate(0 11.24)">
				<path id="Path_153" class="st0" d="M7.5,12.6c-0.6-0.6-0.7-1.5-0.2-2.2c0,0,0,0,0-0.1c0.5-0.7,1.5-0.7,2.2-0.2
					c0,0,0.1,0,0.1,0.1c0.6,0.6,0.6,1.6,0.1,2.2C9.1,13.1,8.2,13.1,7.5,12.6z"/>
			</g>
		</g>
	</g>
</g>
</svg>
